<svg id="Layer_5" enable-background="new 0 0 64 64" height="512" viewBox="0 0 64 64" width="512" xmlns="http://www.w3.org/2000/svg" xmlns:xlink="http://www.w3.org/1999/xlink"><linearGradient id="SVGID_1_" gradientUnits="userSpaceOnUse" x1="32" x2="32" y1="63" y2="1"><stop offset="0" stop-color="#9f2fff"/><stop offset="1" stop-color="#0bb1d3"/></linearGradient><path d="m8 11c1.654 0 3-1.346 3-3s-1.346-3-3-3-3 1.346-3 3 1.346 3 3 3zm0-4c.552 0 1 .449 1 1s-.448 1-1 1-1-.449-1-1 .448-1 1-1zm8 4c1.654 0 3-1.346 3-3s-1.346-3-3-3-3 1.346-3 3 1.346 3 3 3zm0-4c.552 0 1 .449 1 1s-.448 1-1 1-1-.449-1-1 .448-1 1-1zm8 4c1.654 0 3-1.346 3-3s-1.346-3-3-3-3 1.346-3 3 1.346 3 3 3zm0-4c.552 0 1 .449 1 1s-.448 1-1 1-1-.449-1-1 .448-1 1-1zm21 31.677v-13.677h-12v13.677l6 2.4zm-10-11.677h8v10.323l-4 1.6-4-1.6zm6 4h-4v-2h4zm0 4h-4v-2h4zm14-15c0-1.654-1.346-3-3-3h-1v-7c0-1.654-1.346-3-3-3h-3.142c-.447-1.72-1.999-3-3.858-3h-4c-2.206 0-4 1.794-4 4s1.794 4 4 4h4c1.859 0 3.411-1.28 3.858-3h3.142c.552 0 1 .449 1 1v7h-1c-1.654 0-3 1.346-3 3v1h-30v7l4.246 15h3.754v20h32v-20h3.754l4.208-14.725.038-7.275h-8zm-14-10h-4c-1.103 0-2-.897-2-2s.897-2 2-2h4c1.103 0 2 .897 2 2s-.897 2-2 2zm6 10c0-.551.448-1 1-1h4c.552 0 1 .449 1 1v1h-6zm-16 3h16v23.461l-8-3.556-8 3.556zm-2 0v4h-12v-4zm-8.246 18-3.428-12h11.674v4h-6v8zm32.246 20h-28v-26h4v14.539l10-4.444 10 4.444v-14.539h4zm4.246-20h-2.246v-8h-6v-4h11.674zm3.754-14h-12v-4h12zm-57-12h14.649l4.321 3.457c.438.35.989.543 1.55.543 1.368 0 2.48-1.113 2.48-2.48v-1.52h1c1.654 0 3-1.346 3-3v-8c0-1.654-1.346-3-3-3h-24c-1.654 0-3 1.346-3 3v8c0 1.654 1.346 3 3 3zm-1-11c0-.551.448-1 1-1h24c.552 0 1 .449 1 1v8c0 .551-.448 1-1 1h-3v3.52c0 .374-.491.607-.78.375l-4.869-3.895h-15.351c-.552 0-1-.449-1-1zm28 53h2v2h-2zm4 0h2v2h-2zm-8 0h2v2h-2z" fill="url(#SVGID_1_)"/></svg>