<svg id="Layer_1" enable-background="new 0 0 32 32" viewBox="0 0 32 32" xmlns="http://www.w3.org/2000/svg"><path d="m28 5.5h-2v-1c0-1.103-.897-2-2-2s-2 .897-2 2v1h-12v-1c0-1.103-.897-2-2-2s-2 .897-2 2v1h-2c-.827 0-1.5.673-1.5 1.5v21c0 .827.673 1.5 1.5 1.5h24c.827 0 1.5-.673 1.5-1.5v-21c0-.827-.673-1.5-1.5-1.5zm-5-1c0-.552.449-1 1-1s1 .448 1 1v3c0 .552-.449 1-1 1s-1-.448-1-1zm-16 0c0-.552.449-1 1-1s1 .448 1 1v3c0 .552-.449 1-1 1s-1-.448-1-1zm21.5 23.5c0 .275-.224.5-.5.5h-24c-.276 0-.5-.225-.5-.5v-21c0-.275.224-.5.5-.5h2v1c0 1.103.897 2 2 2s2-.897 2-2v-1h12v1c0 1.103.897 2 2 2s2-.897 2-2v-1h2c.276 0 .5.225.5.5z"/><path d="m26 10.5h-20c-.276 0-.5.224-.5.5v15c0 .276.224.5.5.5h20c.276 0 .5-.224.5-.5v-15c0-.276-.224-.5-.5-.5zm-.5 15h-19v-14h19z"/><path d="m10.744 17.726 1.849.023 1.109 1.541c.095.132.247.208.406.208.028 0 .057-.002.085-.008.188-.032.342-.17.395-.354l.017-.06 4.555 4.555c.296.296.685.443 1.073.443s.777-.147 1.073-.443c.287-.286.444-.667.444-1.072s-.158-.786-.444-1.073l-4.556-4.555.059-.017c.184-.053.322-.206.354-.395.033-.189-.045-.38-.201-.492l-1.541-1.109-.023-1.847c-.002-.188-.109-.358-.277-.441s-.368-.065-.519.044l-1.438 1.057-1.756-.635c-.182-.063-.387-.021-.523.117-.137.137-.183.341-.117.523l.634 1.756-1.056 1.438c-.111.15-.128.352-.045.519.085.167.255.275.443.277zm9.854 4.467c.098.098.152.228.152.366s-.054.268-.151.365c-.202.201-.53.201-.732 0l-4.946-4.946.163-.568.568-.164zm-8.163-6.79-.363-1.005 1.005.363c.158.057.333.03.466-.067l.869-.639.014 1.127c.002.159.079.308.208.4l.911.655-1.001.288c-.166.048-.295.177-.342.342l-.289 1.002-.655-.91c-.093-.129-.241-.206-.399-.208l-1.128-.014.638-.869c.097-.133.122-.307.066-.465z"/></svg>