<svg id="solid" enable-background="new 0 0 128 128" height="128" viewBox="0 0 128 128" width="128" xmlns="http://www.w3.org/2000/svg"><g><path d="m37.886 80.259h9.075v9.076h-9.075z"/><path d="m30.301 96.837h55.761v-38.202c-1.962-.403-3.829-1.064-5.573-1.996v2.017c0 .552-.447 1-1 1h-11.083c-.553 0-1-.448-1-1v-11.08c0-.552.447-1 1-1h2.806c-.763-1.774-1.255-3.621-1.488-5.518h-39.423zm18.66-6.502c0 .553-.447 1-1 1h-11.075c-.553 0-1-.447-1-1v-11.076c0-.553.447-1 1-1h11.075c.553 0 1 .447 1 1zm-.999-21.074h-5.213c-.553 0-1-.447-1-1s.447-1 1-1h5.213c.553 0 1 .447 1 1s-.447 1-1 1zm11.67 21.074c0 .553-.447 1-1 1s-1-.447-1-1v-9.098c0-.553.447-1 1-1s1 .447 1 1zm20.849 0c0 .553-.447 1-1 1h-11.075c-.553 0-1-.447-1-1v-11.078c0-.553.447-1 1-1h11.075c.553 0 1 .447 1 1zm-4.746-23.074h3.746c.553 0 1 .447 1 1s-.447 1-1 1h-3.746c-.553 0-1-.447-1-1s.448-1 1-1zm-7.329 0c.553 0 1 .447 1 1s-.447 1-1 1h-8.774v5.65c0 .553-.447 1-1 1s-1-.447-1-1v-6.65c0-.553.447-1 1-1zm-10.774-19.688c0-.552.447-1 1-1s1 .448 1 1v12.705c0 .552-.447 1-1 1h-13.278c-.553 0-1-.448-1-1s.447-1 1-1h12.277v-11.705zm-21.748 0c0-.552.447-1 1-1h11.078c.553 0 1 .448 1 1s-.447 1-1 1h-10.078v11.705c0 .552-.447 1-1 1s-1-.448-1-1zm1 19.688h1.631c.553 0 1 .447 1 1s-.447 1-1 1h-1.631c-.553 0-1-.447-1-1s.447-1 1-1z"/><path d="m78.488 57.655v-2.227c-2.561-1.755-4.718-4.105-6.29-6.852h-2.792v9.079z"/><path d="m90.212 19.726c-10.302 0-18.684 8.381-18.684 18.684 0 .604.021 1.095.068 1.546.191 2.511.885 4.91 2.064 7.156 1.518 2.837 3.722 5.244 6.369 6.954 2.186 1.421 4.604 2.355 7.192 2.778 1.024.151 2.036.229 2.989.229 10.303 0 18.685-8.372 18.685-18.663.001-10.303-8.38-18.684-18.683-18.684zm10.728 11.026-11.197 15.183c-.196.266-.499.406-.806.406-.206 0-.414-.063-.593-.195l-9.959-7.345c-.444-.328-.539-.954-.211-1.398s.953-.539 1.398-.211l9.154 6.751 10.604-14.378c.328-.444.953-.54 1.398-.211.446.327.541.953.212 1.398z"/><path d="m69.406 80.257h9.075v9.078h-9.075z"/><path d="m44.397 108.274h-25.293v-25.291c0-.553-.447-1-1-1s-1 .447-1 1v26.291c0 .553.447 1 1 1h26.294c.553 0 1-.447 1-1s-.448-1-1.001-1z"/><path d="m18.104 57.307c.553 0 1-.448 1-1v-25.293h25.294c.553 0 1-.448 1-1s-.447-1-1-1h-26.294c-.553 0-1 .448-1 1v26.293c0 .552.447 1 1 1z"/><path d="m97.366 81.983c-.553 0-1 .447-1 1v25.291h-25.293c-.553 0-1 .447-1 1s.447 1 1 1h26.293c.553 0 1-.447 1-1v-26.291c0-.552-.447-1-1-1z"/></g></svg>